<mxfile host="app.diagrams.net" agent="Mozilla/5.0 (Windows NT 10.0; Win64; x64) AppleWebKit/537.36 (KHTML, like Gecko) Chrome/134.0.0.0 Safari/537.36" version="26.2.2">
  <diagram name="Страница — 1" id="BnJ8uMgixRZnlX74DOfT">
    <mxGraphModel dx="1044" dy="535" grid="1" gridSize="10" guides="1" tooltips="1" connect="1" arrows="1" fold="1" page="1" pageScale="1" pageWidth="827" pageHeight="1169" math="0" shadow="0">
      <root>
        <mxCell id="0" />
        <mxCell id="1" parent="0" />
        <mxCell id="P7vFfGbyw57O97qgs9nt-1" value="&lt;span style=&quot;color: rgb(31, 31, 31); font-family: &amp;quot;Google Sans&amp;quot;, Arial, sans-serif; font-size: 32px; text-align: start; background-color: rgb(255, 255, 255);&quot;&gt;©&amp;nbsp;&lt;/span&gt;&amp;nbsp;2025 ,Сhdtu dev prod. Всі права збережено. Всі дані взято із публічних джерел.&amp;nbsp;" style="text;html=1;align=center;verticalAlign=middle;whiteSpace=wrap;rounded=0;" vertex="1" parent="1">
          <mxGeometry x="160" y="180" width="540" height="30" as="geometry" />
        </mxCell>
        <mxCell id="P7vFfGbyw57O97qgs9nt-2" value="Персонал" style="text;html=1;align=center;verticalAlign=middle;whiteSpace=wrap;rounded=0;fontSize=18;fontStyle=4" vertex="1" parent="1">
          <mxGeometry x="240" y="240" width="60" height="30" as="geometry" />
        </mxCell>
        <mxCell id="P7vFfGbyw57O97qgs9nt-3" value="Ліцензія" style="text;html=1;align=center;verticalAlign=middle;whiteSpace=wrap;rounded=0;fontSize=18;fontStyle=4" vertex="1" parent="1">
          <mxGeometry x="370" y="240" width="60" height="30" as="geometry" />
        </mxCell>
        <mxCell id="P7vFfGbyw57O97qgs9nt-7" value="" style="shape=image;verticalLabelPosition=bottom;labelBackgroundColor=default;verticalAlign=top;aspect=fixed;imageAspect=0;image=data:image/png,iVBORw0KGgoAAAANSUhEUgAAAQ8AAAC6CAMAAACHgTh+AAAA0lBMVEX///8AAAD/0wD7+/v4+Pj/2AD/1gDT09Ofn583Nzf09PTo6Oi9vb3/1wBsbGzc3NyFhYVAQEBHR0cyMjIpKSmvr6/u7u61tbVgYGBRUVEaGhqlpaV7e3uLi4shISHQ0NCXl5f10ADHx8fMrQAcHBwTExNjY2NOTk5+fn5wcHBYWFgpIQBiUQCvmACJcQDhuwAbFgCfhABsWQBFOQDsxABSQwCojADGpgA2LAB4YwBOQAANCwAvJwCVewCvkQA7MQDXtQAjHQB/aAAYEwC7mgD/4wAa0KI5AAAM4UlEQVR4nO2baXubvBKGTQAbg3fj3caYeondvknbOE3yNmnTNv3/f+loRhJIgB2TJj3nus7cX2I2LQ+j0WhESiWCIAiCIAiCIAiCIAiCIAiCIAiCIAiCIAiCIAiCIAiCIAiCIAiCIAiCIAiCIAiCIAiCIAiCIAiCIAjiIK7X1Ombr1e450yc/usVd5R5GLKWT8Lo5UV4g1Z7ZaRZDcP5K2kSseKar1PUs4SGETZ7hrF94fNmNMxqIfFD7zXa+Df1sNr8bb6w4bX2QTE4LffP29iv1WqvUMxpuGG7W52+TI7mUPT64/XFw7dPF5/fSxm+//z+lf8KavnPWq5r8Qa4oq/MBXl8hJnKNThjWfywZHqVZj/1vCWf7zcrnrzPjbGUW8XtplKvrJ1XGVdsyruK0OM9vv30eGYL9t8+8JMX9uLpM/95nvtwOF5NsBdV34fB0NvAve0BnBusgga2feSv5kyolT+GVptOB+4ZzrHyZcDH+DqAe0q1HVyrOniuEviCZQuqWs7iehvBqgd/va4feCWP3YKCbINgygoZ84pZo8a9onKcY2+vnup2+UxStu3Ln/z8nqlzgT83Vs7TM8PAtveX4By8jrQshwu9g2tm1TBYX5vsNLMKd6PeM2HCYEEjw4hK/Z28hiLNkwE7xapacb3MpPE9eMztebLoUo39XbMXISreGuKu0zEbOFCeyvaZTtm+vIZLvy5t9vMK33rO6I/1CEAPaNe214MyPdQD+2q2VT3W7E+jF4LHGqAeayxoh3qwUhqTAfRjLvQY7Xa77il6sMb1oZWNWA9Qp6geKMeHfVoNoF7+BBe/XpbZTzSRTnYw6nqU5htPlFo7oEfEdSiZrEdVM6VHqd+pwEHI+8H0CMQh1yMZL7l6rDU9oElF9YA3Yfwsl3PkYNg3cPl+wS7bX4TVZvUI+57nNYNkMnXnPrYjV4+tFMBjhxXQYwfPexvUgz9f2XGVQQ9T1WPkOE4vMrkeDjxXUfRgMqwUPVhN44J6TKCTn/KMQxXkun4mBcl4p5kyKYMeXjiqLsV7ydHDLbWFQZVKVShuojwPenjOrh1I55LRg+PPUY8YoUd/ZYwniR5stAxbxfSAYtgUclAOKcgD3GI/8LqP6sEPlwftA/UY8EfXcFNKDwd/rIKjekArsnpYbJAO5lKPIYyW/qyYHuDTPhyTg6nwBDU+goWUwb+us3p0R5vNpoN6wNTdqjVhzjqkB7sx5I92QRmmx3IDjEEPcKDTXhNkAT0qaT1aLIaZB1DCUKkX9RjjTBXFemyhCcXsA97Nx8UB3xELcsfu+hf12Euj1vXAGl30H0Mxojb4N1ePqZgL8bCS8qdTIdY514P1zi+V0v50BrOxrCnxpyhMrMcKqymkRx9WLDfHzYOxgGj1CUcMzDe7jB7K/NLFeYWbiYg/TNN02yhjMr9AG10WcFTT8+02nlcwAGGFd7J67KDw7PyCVcd68KFdSA9Wi/H5WTn4iPnOf9/iOz2sxxTsFsMPaDvIEiwZ4BI6phJ/jMJWwG1N14M1aez0pvj8FKYOI9T02IThrIM9z9EDQlJFD7hcRA+wcOPymdFyJv0G2hHOMXrcrsenFeHhZkvoQU/xeSzWkPHpSJ4Cg0/Fp+LKlDnkRkX46Kw/nebFH2MRoPL4lNtxET0gervTzaO8z9OjDnPM9WK/3y8uf7A3rUWpyfolgPVLZbNajTdRqeePZ2z9IpcfrHttM16/9Drj1SrYYld742T9AmNqOF6N2epnXl1OK0u/zb2VM+brF17WGoZkZv2yxAVntILiauxOnAhny9PXL/CaHjXzKC9uP5/lGEwZhsl74P5r2qOalsWDVrl47Xt9ft6EaxzTBT2S9S27KV7CHni+ZMH9WiWiuJK8XX1Ono/vNPXSnwcM7SplHmwqucoZQehHE/IXukex2HjJWw3+DwFjTI9MebdvsnqULzU9clYxz2EF1d0f6mFNJhOn8vx9L6WVHi48FM0N3m0YMB+Azz+MbIx6Aqfb7SHQ1Tp/WMgRWKhg6Ebw8eD8a0Mu5NKu1+u/wYbmb9eqw1hyDn0bXBYfX6udX/zL6rtd5MlxZn+DkAxiVJxrCqec/gAvcmZI6231gBlbXcmBLzU+XtZz9Si/kyMJXcns+eJfidrO0Hg7PSAk/pL0nq/mn+oLFd2hXvzGzKoIBP8GzZFh/C09IHb8J9bDfpeu2dBmY1Dh6gL4+UsGlG9OLdukt9MDptt/4g5f/srR419lOH1VL+yeL/4ViJPJfldGucWT5Sej6VH/kiPHf1kPnv0ct+aelfCKu8kpepp9YJIjzfeT9HAh+anEWnCoBChWZeA4k0gNWeCGeF/b1I6s5AhXb42j+9/NmuM4taYa6PXV0kTjTtpDh8GZ+I+zxXd2/P7mnUoSrWEm6G4PPH5N5chwHkw277Ab8S5ypREIDasT+W4hj8zTGtgn7QiXtI34rmOOqj/ryvHUitWGzJOyMoCNnzg9eRyo+SExgPIlWMCdXVbR55cHvJiZX3Q9eGJG7kVOVavy54oe7ef06CnlmDmhvpp3Vfysrodz+uiG5dxPZUDwaP1Lfnqo/iSvYSSiRc26HjhDCq/XT2+S1wroAQXB7kZ/MN1V/c56pi9dzlNFS4vU9MCaTlxdmMyQb9Xe8/R5fvoQV3rvwD4wUtW2tjU9MDG14b/FJwfG8Px8K0bN/GQ9LB/fer+VdLldS1XKnpueT8UO6SxHD9xcCk+SA/Nzhhad12Hf+uM+L2Fmw+72zSP4FLhJ+4hD1cMaG8ll3uYWz4YM8OsS3HM+SQ8PSqpEuhE0ZCaKn9/wiip8PzjK6BFpFT0HZE+f1PC8vLhnp65zB4zWrEBLkKl6tJQ3xVOH8cBuLuXLOkkP+LGaGSnEBjK3vNirW8OkDEUP7kxPXntCuKOnC+uPUECOC8FFXIK+BaPogX0LxPmtog2AbyuwCujBGU2ieS0UY4/7Rgxcu0ksgplg3nNFD3Sm2Q3WQ+AI1ZezkEn/kjNeUtFJeEiPYWK3fDNjrE79I9HoQnpU5futLRN7WysmieBk09L1gAkjZcrHgY486cZgP+T6U5hjf3xCYC+mmSmGi4CvTTr6KPN2aqLRRfQYJf3xMNxYshOur5sHE38sC2nHZW/Toj0HVHmbsoZ6rjeFmecBV7ePauMVPYbn0+m5jy+wVhuAVaC1hs1KwkD0tYAeS3Wu5OuZnnhkpxZdwar7Qo/llDUG5fBZY2onx/i7rIHkUd5DqIZpZhw4qTWmMiNKwMYb2dP4ws0ieoRaTQ1hf1F+0RhoZL8LXJ08ZKDc+/yEmGYe8CnMXZwMWqWWA8X02BTSQw+lcMB1zLw8wBE9CrgQ8HBHv3ZAOTA1ws0DwpB0cqyYHu1CeuhdqYgC3kwPbMszG9rlPeTW+QcgEJsu06tF1MPvCpZSDxy/5xMnxeDUeAxmh66+bmkKPXC8dDJFO67UQzamW3SKgYDn64GcqQRsAtPMddyFyWSo9PVLKPXAKTB3ZXl6vG7o2kdCD3zkwNJXi9fNXUE94JMl435/RBDcacDPYbihZBeLB/TA2SB3aXnaem6jFZuUzS663axWEn19W1gPbNt97teFOFjO8LPCbzZE85AhGWcXiwf0cHEpk7efVmC9v1Gfc3Eswtq6IX9k+UM9+Gv88ZgviL3Ar5TB5dp7kCP9cRBwQI8S5j5G6p3TIut9dCBGqDyOHgmdJneoalg4kB+mZvXwi30yzz+l+VTPjpmy/e5eyFG2bzBhmJfOzdEjijtqbOO2WVv5xYamwCE9xNceofq4IYJyE9f4q0QQ+KrQPKDHsuC/EHCxr97Zqb1+e89XLRd2/DM3u52jR6fmxR3qYrRqNh1cc82kHt2aAP1uNRJHTqKHVU2eN70Jz6AI4xep9xAV6ddQno2b1QOXTK0iQTujia7cuL5Z2OIL9jLT5vGOp5C//bYvL/jP/Dykrof4JAgMwRS7Sat2pyNTnWupxzFEOrIp/yGnGj8e+yMnvtSpip/ctel6rPmlgl8WWCJ2en/39LhfnC0W+5ufV/zU/c3jwzX/6R/4V568/Cm3JDe12Sis/VQ95ItKWCXuOUw/1OHzTU7+tLAebMxU43Lf39/mNvLgnm0qv95K9Ei32ufe+GQ9Sq6Wjza2qieIdLFCfjaVX7e6L9OD2fnxf5A68o9GoV+t+sq8Mxh1q74cWv1Q/nPHuCE184LqUbrK90devKkQnKftcxB/orxzpFLmrlvtKl/euLMOO/GiL3Hm592sDsjo+H9Fmoz0CeWoX4miaK7uWJnPoRXmRb1eL2rm9cltsqKjpmo2medL6ePTsZqDsDEcqayn+tYaQRAEQRAEQRAEQRAEQRAEQRAEQRAEQRAEQRAEQRAEQRAEQRAEQRAEQRAEQRDE/wH/AUbbClVZVnWQAAAAAElFTkSuQmCC;" vertex="1" parent="1">
          <mxGeometry x="490" y="220" width="101.99" height="70" as="geometry" />
        </mxCell>
      </root>
    </mxGraphModel>
  </diagram>
</mxfile>
